<?xml version="1.0" encoding="iso-8859-1"?>
<!-- Uploaded to: SVG Repo, www.svgrepo.com, Generator: SVG Repo Mixer Tools -->
<svg height="800px" width="800px" version="1.1" id="Layer_1" xmlns="http://www.w3.org/2000/svg" xmlns:xlink="http://www.w3.org/1999/xlink" 
	 viewBox="0 0 512 512" xml:space="preserve">
<circle style="fill:#FFD15D;" cx="256" cy="256" r="256"/>
<path style="fill:#F9B54C;" d="M511.986,257.072L384.338,129.424L205.174,334.465l-76.35,49.299l128.224,128.224
	C397.591,511.422,511.409,397.614,511.986,257.072z"/>
<path style="fill:#31BAFD;" d="M153.715,118.088h204.571c19.677,0,35.628,15.951,35.628,35.626v204.571
	c0,19.677-15.951,35.628-35.626,35.628H153.717c-19.677,0-35.628-15.951-35.628-35.626V153.715
	C118.088,134.039,134.039,118.088,153.715,118.088z"/>
<path style="fill:#2B9ED8;" d="M118.089,255.426v102.86c0,19.677,15.951,35.626,35.628,35.626h204.571
	c19.677,0,35.628-15.951,35.626-35.628v-102.86H118.089V255.426z"/>
<polygon style="fill:#324A5E;" points="223.794,362.467 195.756,334.429 274.189,256 195.758,177.571 223.796,149.533 330.264,256 
	"/>
<polygon style="fill:#2B3B4E;" points="273.615,255.426 274.189,256 195.756,334.429 223.794,362.467 330.264,256 329.688,255.426 
	"/>
</svg>